<svg xmlns="http://www.w3.org/2000/svg" xmlns:xlink="http://www.w3.org/1999/xlink" width="500" zoomAndPan="magnify" viewBox="0 0 375 374.999991" height="500" preserveAspectRatio="xMidYMid meet" version="1.2"><defs><clipPath id="a300fdef36"><path d="M 5.386719 165.710938 L 125.738281 165.710938 L 125.738281 177.109375 L 5.386719 177.109375 Z M 5.386719 165.710938 "/></clipPath><clipPath id="1cf2096fe0"><path d="M 129.527344 165.710938 L 246.039062 165.710938 L 246.039062 177.589844 L 129.527344 177.589844 Z M 129.527344 165.710938 "/></clipPath><clipPath id="b8305f26d8"><path d="M 249.714844 165.710938 L 369.613281 165.710938 L 369.613281 177.589844 L 249.714844 177.589844 Z M 249.714844 165.710938 "/></clipPath></defs><g id="1d9cc11982"><g style="fill:#000000;fill-opacity:1;"><g transform="translate(5.398207, 204.544134)"><path style="stroke:none" d="M 1.765625 -17.109375 L 3.921875 -17.109375 L 3.921875 -9.828125 L 13.0625 -9.828125 L 13.0625 -17.109375 L 15.21875 -17.109375 L 15.21875 0 L 13.0625 0 L 13.0625 -7.921875 L 3.921875 -7.921875 L 3.921875 0 L 1.765625 0 Z M 1.765625 -17.109375 "/></g></g><g style="fill:#000000;fill-opacity:1;"><g transform="translate(22.381998, 204.544134)"><path style="stroke:none" d="M 1.765625 -17.109375 L 13.609375 -17.109375 L 13.609375 -15.1875 L 3.921875 -15.1875 L 3.921875 -9.8125 L 12.46875 -9.8125 L 12.46875 -7.890625 L 3.921875 -7.890625 L 3.921875 -1.90625 L 13.90625 -1.90625 L 13.90625 0 L 1.765625 0 Z M 1.765625 -17.109375 "/></g></g><g style="fill:#000000;fill-opacity:1;"><g transform="translate(37.021555, 204.544134)"><path style="stroke:none" d="M 1.765625 -17.109375 L 8.640625 -17.109375 C 10.503906 -17.109375 11.921875 -16.679688 12.890625 -15.828125 C 13.867188 -14.984375 14.359375 -13.765625 14.359375 -12.171875 C 14.359375 -11.117188 14.066406 -10.210938 13.484375 -9.453125 C 12.898438 -8.703125 12.15625 -8.210938 11.25 -7.984375 L 11.25 -7.9375 C 12.039062 -7.78125 12.644531 -7.390625 13.0625 -6.765625 C 13.476562 -6.148438 13.753906 -5.46875 13.890625 -4.71875 C 14.023438 -3.976562 14.125 -3.09375 14.1875 -2.0625 C 14.226562 -1.40625 14.273438 -0.929688 14.328125 -0.640625 C 14.378906 -0.359375 14.46875 -0.191406 14.59375 -0.140625 L 14.59375 0 L 12.265625 0 C 12.171875 -0.09375 12.109375 -0.28125 12.078125 -0.5625 C 12.046875 -0.84375 12.03125 -1.226562 12.03125 -1.71875 C 12 -2.738281 11.921875 -3.59375 11.796875 -4.28125 C 11.679688 -4.976562 11.390625 -5.585938 10.921875 -6.109375 C 10.460938 -6.640625 9.765625 -6.90625 8.828125 -6.90625 L 3.921875 -6.90625 L 3.921875 0 L 1.765625 0 Z M 8.140625 -8.828125 C 9.441406 -8.828125 10.441406 -9.109375 11.140625 -9.671875 C 11.847656 -10.242188 12.203125 -11.0625 12.203125 -12.125 C 12.203125 -13.144531 11.882812 -13.910156 11.25 -14.421875 C 10.625 -14.929688 9.609375 -15.1875 8.203125 -15.1875 L 3.921875 -15.1875 L 3.921875 -8.828125 Z M 8.140625 -8.828125 "/></g></g><g style="fill:#000000;fill-opacity:1;"><g transform="translate(52.474413, 204.544134)"><path style="stroke:none" d="M 8.640625 0.328125 C 7.015625 0.328125 5.625 -0.046875 4.46875 -0.796875 C 3.3125 -1.554688 2.429688 -2.601562 1.828125 -3.9375 C 1.234375 -5.28125 0.9375 -6.820312 0.9375 -8.5625 C 0.9375 -10.269531 1.269531 -11.796875 1.9375 -13.140625 C 2.601562 -14.492188 3.535156 -15.546875 4.734375 -16.296875 C 5.941406 -17.054688 7.320312 -17.4375 8.875 -17.4375 C 10.96875 -17.4375 12.609375 -16.945312 13.796875 -15.96875 C 14.992188 -14.988281 15.753906 -13.644531 16.078125 -11.9375 L 13.828125 -11.9375 C 13.585938 -13.132812 13.03125 -14.03125 12.15625 -14.625 C 11.289062 -15.226562 10.195312 -15.53125 8.875 -15.53125 C 7.601562 -15.53125 6.539062 -15.1875 5.6875 -14.5 C 4.832031 -13.8125 4.203125 -12.9375 3.796875 -11.875 C 3.390625 -10.8125 3.1875 -9.707031 3.1875 -8.5625 C 3.1875 -6.632812 3.601562 -4.988281 4.4375 -3.625 C 5.269531 -2.257812 6.671875 -1.578125 8.640625 -1.578125 C 9.660156 -1.578125 10.59375 -1.800781 11.4375 -2.25 C 12.28125 -2.707031 12.953125 -3.351562 13.453125 -4.1875 C 13.953125 -5.019531 14.203125 -5.953125 14.203125 -6.984375 L 8.640625 -6.984375 L 8.640625 -8.90625 L 16.359375 -8.90625 L 16.359375 0 L 14.921875 0 L 14.203125 -2.421875 L 14.15625 -2.421875 C 13.488281 -1.492188 12.71875 -0.800781 11.84375 -0.34375 C 10.976562 0.101562 9.910156 0.328125 8.640625 0.328125 Z M 8.640625 0.328125 "/></g></g><g style="fill:#000000;fill-opacity:1;"><g transform="translate(70.008384, 204.544134)"><path style="stroke:none" d="M 1.765625 -17.109375 L 13.609375 -17.109375 L 13.609375 -15.1875 L 3.921875 -15.1875 L 3.921875 -9.8125 L 12.46875 -9.8125 L 12.46875 -7.890625 L 3.921875 -7.890625 L 3.921875 -1.90625 L 13.90625 -1.90625 L 13.90625 0 L 1.765625 0 Z M 1.765625 -17.109375 "/></g></g><g style="fill:#000000;fill-opacity:1;"><g transform="translate(84.647941, 204.544134)"><path style="stroke:none" d="M 8.078125 0.328125 C 6.660156 0.328125 5.398438 0.0859375 4.296875 -0.390625 C 3.203125 -0.878906 2.332031 -1.578125 1.6875 -2.484375 C 1.039062 -3.390625 0.675781 -4.472656 0.59375 -5.734375 L 2.84375 -5.734375 C 3.132812 -2.953125 4.847656 -1.5625 7.984375 -1.5625 C 9.421875 -1.5625 10.4375 -1.832031 11.03125 -2.375 C 11.632812 -2.925781 11.9375 -3.691406 11.9375 -4.671875 C 11.9375 -5.398438 11.773438 -5.960938 11.453125 -6.359375 C 11.140625 -6.765625 10.691406 -7.070312 10.109375 -7.28125 C 9.535156 -7.5 8.644531 -7.757812 7.4375 -8.0625 C 7.320312 -8.070312 7.15625 -8.113281 6.9375 -8.1875 C 5.769531 -8.46875 4.804688 -8.757812 4.046875 -9.0625 C 3.296875 -9.363281 2.648438 -9.828125 2.109375 -10.453125 C 1.578125 -11.078125 1.3125 -11.898438 1.3125 -12.921875 C 1.3125 -14.304688 1.820312 -15.40625 2.84375 -16.21875 C 3.863281 -17.03125 5.285156 -17.4375 7.109375 -17.4375 C 9.035156 -17.4375 10.566406 -16.960938 11.703125 -16.015625 C 12.847656 -15.078125 13.492188 -13.75 13.640625 -12.03125 L 11.390625 -12.03125 C 11.222656 -13.207031 10.804688 -14.085938 10.140625 -14.671875 C 9.472656 -15.253906 8.46875 -15.546875 7.125 -15.546875 C 5.945312 -15.546875 5.054688 -15.328125 4.453125 -14.890625 C 3.859375 -14.460938 3.5625 -13.835938 3.5625 -13.015625 C 3.5625 -12.347656 3.75 -11.820312 4.125 -11.4375 C 4.5 -11.050781 4.957031 -10.757812 5.5 -10.5625 C 6.039062 -10.375 6.816406 -10.160156 7.828125 -9.921875 C 9.253906 -9.585938 10.390625 -9.253906 11.234375 -8.921875 C 12.085938 -8.597656 12.789062 -8.101562 13.34375 -7.4375 C 13.90625 -6.769531 14.1875 -5.867188 14.1875 -4.734375 C 14.1875 -3.234375 13.675781 -2.015625 12.65625 -1.078125 C 11.632812 -0.140625 10.109375 0.328125 8.078125 0.328125 Z M 8.078125 0.328125 "/></g></g><g style="fill:#000000;fill-opacity:1;"><g transform="translate(98.809031, 204.544134)"><path style="stroke:none" d="M 6.046875 -15.1875 L 0.359375 -15.1875 L 0.359375 -17.109375 L 13.90625 -17.109375 L 13.90625 -15.1875 L 8.203125 -15.1875 L 8.203125 0 L 6.046875 0 Z M 6.046875 -15.1875 "/></g></g><g style="fill:#000000;fill-opacity:1;"><g transform="translate(113.065851, 204.544134)"><path style="stroke:none" d="M 1.765625 -17.109375 L 13.609375 -17.109375 L 13.609375 -15.1875 L 3.921875 -15.1875 L 3.921875 -9.8125 L 12.46875 -9.8125 L 12.46875 -7.890625 L 3.921875 -7.890625 L 3.921875 -1.90625 L 13.90625 -1.90625 L 13.90625 0 L 1.765625 0 Z M 1.765625 -17.109375 "/></g></g><g style="fill:#000000;fill-opacity:1;"><g transform="translate(127.705408, 204.544134)"><path style="stroke:none" d="M 1.765625 -17.109375 L 3.921875 -17.109375 L 3.921875 -1.90625 L 12.890625 -1.90625 L 12.890625 0 L 1.765625 0 Z M 1.765625 -17.109375 "/></g></g><g style="fill:#000000;fill-opacity:1;"><g transform="translate(140.957553, 204.544134)"><path style="stroke:none" d="M 1.765625 -17.109375 L 3.921875 -17.109375 L 3.921875 -1.90625 L 12.890625 -1.90625 L 12.890625 0 L 1.765625 0 Z M 1.765625 -17.109375 "/></g></g><g style="fill:#000000;fill-opacity:1;"><g transform="translate(151.147632, 204.544134)"><path style="stroke:none" d="M 6.046875 -15.1875 L 0.359375 -15.1875 L 0.359375 -17.109375 L 13.90625 -17.109375 L 13.90625 -15.1875 L 8.203125 -15.1875 L 8.203125 0 L 6.046875 0 Z M 6.046875 -15.1875 "/></g></g><g style="fill:#000000;fill-opacity:1;"><g transform="translate(164.710702, 204.544134)"><path style="stroke:none" d=""/></g></g><g style="fill:#000000;fill-opacity:1;"><g transform="translate(169.829762, 204.544134)"><path style="stroke:none" d="M 1.765625 -17.109375 L 3.921875 -17.109375 L 3.921875 0 L 1.765625 0 Z M 1.765625 -17.109375 "/></g></g><g style="fill:#000000;fill-opacity:1;"><g transform="translate(175.522919, 204.544134)"><path style="stroke:none" d="M 1.765625 -17.109375 L 4.40625 -17.109375 L 12.9375 -3.0625 L 12.984375 -3.0625 L 12.984375 -17.109375 L 15.140625 -17.109375 L 15.140625 0 L 12.515625 0 L 3.96875 -14.046875 L 3.921875 -14.046875 L 3.921875 0 L 1.765625 0 Z M 1.765625 -17.109375 "/></g></g><g style="fill:#000000;fill-opacity:1;"><g transform="translate(192.43495, 204.544134)"><path style="stroke:none" d=""/></g></g><g style="fill:#000000;fill-opacity:1;"><g transform="translate(197.554009, 204.544134)"><path style="stroke:none" d="M 1.765625 -17.109375 L 7.96875 -17.109375 C 9.539062 -17.109375 10.894531 -16.773438 12.03125 -16.109375 C 13.175781 -15.453125 14.050781 -14.476562 14.65625 -13.1875 C 15.269531 -11.90625 15.578125 -10.359375 15.578125 -8.546875 C 15.578125 -5.816406 14.898438 -3.707031 13.546875 -2.21875 C 12.203125 -0.738281 10.34375 0 7.96875 0 L 1.765625 0 Z M 7.96875 -1.90625 C 11.539062 -1.90625 13.328125 -4.117188 13.328125 -8.546875 C 13.328125 -12.972656 11.539062 -15.1875 7.96875 -15.1875 L 3.921875 -15.1875 L 3.921875 -1.90625 Z M 7.96875 -1.90625 "/></g></g><g style="fill:#000000;fill-opacity:1;"><g transform="translate(214.083304, 204.544134)"><path style="stroke:none" d="M 1.765625 -17.109375 L 13.609375 -17.109375 L 13.609375 -15.1875 L 3.921875 -15.1875 L 3.921875 -9.8125 L 12.46875 -9.8125 L 12.46875 -7.890625 L 3.921875 -7.890625 L 3.921875 -1.90625 L 13.90625 -1.90625 L 13.90625 0 L 1.765625 0 Z M 1.765625 -17.109375 "/></g></g><g style="fill:#000000;fill-opacity:1;"><g transform="translate(228.722861, 204.544134)"><path style="stroke:none" d="M 8.203125 0.328125 C 6.003906 0.328125 4.363281 -0.210938 3.28125 -1.296875 C 2.195312 -2.390625 1.65625 -3.851562 1.65625 -5.6875 L 1.65625 -17.109375 L 3.796875 -17.109375 L 3.796875 -5.6875 C 3.796875 -4.300781 4.160156 -3.269531 4.890625 -2.59375 C 5.617188 -1.914062 6.722656 -1.578125 8.203125 -1.578125 C 9.691406 -1.578125 10.796875 -1.914062 11.515625 -2.59375 C 12.242188 -3.269531 12.609375 -4.300781 12.609375 -5.6875 L 12.609375 -17.109375 L 14.765625 -17.109375 L 14.765625 -5.6875 C 14.765625 -3.851562 14.21875 -2.390625 13.125 -1.296875 C 12.039062 -0.210938 10.398438 0.328125 8.203125 0.328125 Z M 8.203125 0.328125 "/></g></g><g style="fill:#000000;fill-opacity:1;"><g transform="translate(245.132555, 204.544134)"><path style="stroke:none" d="M 6.046875 -15.1875 L 0.359375 -15.1875 L 0.359375 -17.109375 L 13.90625 -17.109375 L 13.90625 -15.1875 L 8.203125 -15.1875 L 8.203125 0 L 6.046875 0 Z M 6.046875 -15.1875 "/></g></g><g style="fill:#000000;fill-opacity:1;"><g transform="translate(258.767399, 204.544134)"><path style="stroke:none" d="M 8.078125 0.328125 C 6.660156 0.328125 5.398438 0.0859375 4.296875 -0.390625 C 3.203125 -0.878906 2.332031 -1.578125 1.6875 -2.484375 C 1.039062 -3.390625 0.675781 -4.472656 0.59375 -5.734375 L 2.84375 -5.734375 C 3.132812 -2.953125 4.847656 -1.5625 7.984375 -1.5625 C 9.421875 -1.5625 10.4375 -1.832031 11.03125 -2.375 C 11.632812 -2.925781 11.9375 -3.691406 11.9375 -4.671875 C 11.9375 -5.398438 11.773438 -5.960938 11.453125 -6.359375 C 11.140625 -6.765625 10.691406 -7.070312 10.109375 -7.28125 C 9.535156 -7.5 8.644531 -7.757812 7.4375 -8.0625 C 7.320312 -8.070312 7.15625 -8.113281 6.9375 -8.1875 C 5.769531 -8.46875 4.804688 -8.757812 4.046875 -9.0625 C 3.296875 -9.363281 2.648438 -9.828125 2.109375 -10.453125 C 1.578125 -11.078125 1.3125 -11.898438 1.3125 -12.921875 C 1.3125 -14.304688 1.820312 -15.40625 2.84375 -16.21875 C 3.863281 -17.03125 5.285156 -17.4375 7.109375 -17.4375 C 9.035156 -17.4375 10.566406 -16.960938 11.703125 -16.015625 C 12.847656 -15.078125 13.492188 -13.75 13.640625 -12.03125 L 11.390625 -12.03125 C 11.222656 -13.207031 10.804688 -14.085938 10.140625 -14.671875 C 9.472656 -15.253906 8.46875 -15.546875 7.125 -15.546875 C 5.945312 -15.546875 5.054688 -15.328125 4.453125 -14.890625 C 3.859375 -14.460938 3.5625 -13.835938 3.5625 -13.015625 C 3.5625 -12.347656 3.75 -11.820312 4.125 -11.4375 C 4.5 -11.050781 4.957031 -10.757812 5.5 -10.5625 C 6.039062 -10.375 6.816406 -10.160156 7.828125 -9.921875 C 9.253906 -9.585938 10.390625 -9.253906 11.234375 -8.921875 C 12.085938 -8.597656 12.789062 -8.101562 13.34375 -7.4375 C 13.90625 -6.769531 14.1875 -5.867188 14.1875 -4.734375 C 14.1875 -3.234375 13.675781 -2.015625 12.65625 -1.078125 C 11.632812 -0.140625 10.109375 0.328125 8.078125 0.328125 Z M 8.078125 0.328125 "/></g></g><g style="fill:#000000;fill-opacity:1;"><g transform="translate(273.694012, 204.544134)"><path style="stroke:none" d="M 8.828125 0.328125 C 7.273438 0.328125 5.898438 -0.0507812 4.703125 -0.8125 C 3.515625 -1.582031 2.582031 -2.640625 1.90625 -3.984375 C 1.238281 -5.328125 0.90625 -6.851562 0.90625 -8.5625 C 0.90625 -10.269531 1.238281 -11.796875 1.90625 -13.140625 C 2.582031 -14.492188 3.515625 -15.546875 4.703125 -16.296875 C 5.898438 -17.054688 7.273438 -17.4375 8.828125 -17.4375 C 10.179688 -17.4375 11.382812 -17.171875 12.4375 -16.640625 C 13.488281 -16.109375 14.328125 -15.382812 14.953125 -14.46875 C 15.578125 -13.5625 15.957031 -12.554688 16.09375 -11.453125 L 13.84375 -11.453125 C 13.644531 -12.523438 13.15625 -13.472656 12.375 -14.296875 C 11.601562 -15.117188 10.421875 -15.53125 8.828125 -15.53125 C 7.535156 -15.53125 6.46875 -15.203125 5.625 -14.546875 C 4.78125 -13.890625 4.15625 -13.035156 3.75 -11.984375 C 3.351562 -10.929688 3.15625 -9.789062 3.15625 -8.5625 C 3.15625 -7.332031 3.351562 -6.1875 3.75 -5.125 C 4.15625 -4.070312 4.78125 -3.21875 5.625 -2.5625 C 6.46875 -1.90625 7.535156 -1.578125 8.828125 -1.578125 C 10.472656 -1.578125 11.703125 -2.023438 12.515625 -2.921875 C 13.328125 -3.828125 13.769531 -4.910156 13.84375 -6.171875 L 16.09375 -6.171875 C 15.96875 -4.910156 15.59375 -3.785156 14.96875 -2.796875 C 14.351562 -1.804688 13.519531 -1.035156 12.46875 -0.484375 C 11.414062 0.0546875 10.203125 0.328125 8.828125 0.328125 Z M 8.828125 0.328125 "/></g></g><g style="fill:#000000;fill-opacity:1;"><g transform="translate(290.510349, 204.544134)"><path style="stroke:none" d="M 1.765625 -17.109375 L 3.921875 -17.109375 L 3.921875 -9.828125 L 13.0625 -9.828125 L 13.0625 -17.109375 L 15.21875 -17.109375 L 15.21875 0 L 13.0625 0 L 13.0625 -7.921875 L 3.921875 -7.921875 L 3.921875 0 L 1.765625 0 Z M 1.765625 -17.109375 "/></g></g><g style="fill:#000000;fill-opacity:1;"><g transform="translate(307.494154, 204.544134)"><path style="stroke:none" d="M 1.765625 -17.109375 L 3.921875 -17.109375 L 3.921875 -1.90625 L 12.890625 -1.90625 L 12.890625 0 L 1.765625 0 Z M 1.765625 -17.109375 "/></g></g><g style="fill:#000000;fill-opacity:1;"><g transform="translate(320.746274, 204.544134)"><path style="stroke:none" d="M 6.484375 -17.109375 L 8.90625 -17.109375 L 15.265625 0 L 12.9375 0 L 11.4375 -4.28125 L 3.90625 -4.28125 L 2.390625 0 L 0.171875 0 Z M 10.734375 -6.203125 L 7.703125 -15.125 L 7.65625 -15.125 L 4.609375 -6.203125 Z M 10.734375 -6.203125 "/></g></g><g style="fill:#000000;fill-opacity:1;"><g transform="translate(336.151316, 204.544134)"><path style="stroke:none" d="M 1.765625 -17.109375 L 4.40625 -17.109375 L 12.9375 -3.0625 L 12.984375 -3.0625 L 12.984375 -17.109375 L 15.140625 -17.109375 L 15.140625 0 L 12.515625 0 L 3.96875 -14.046875 L 3.921875 -14.046875 L 3.921875 0 L 1.765625 0 Z M 1.765625 -17.109375 "/></g></g><g style="fill:#000000;fill-opacity:1;"><g transform="translate(353.063335, 204.544134)"><path style="stroke:none" d="M 1.765625 -17.109375 L 7.96875 -17.109375 C 9.539062 -17.109375 10.894531 -16.773438 12.03125 -16.109375 C 13.175781 -15.453125 14.050781 -14.476562 14.65625 -13.1875 C 15.269531 -11.90625 15.578125 -10.359375 15.578125 -8.546875 C 15.578125 -5.816406 14.898438 -3.707031 13.546875 -2.21875 C 12.203125 -0.738281 10.34375 0 7.96875 0 L 1.765625 0 Z M 7.96875 -1.90625 C 11.539062 -1.90625 13.328125 -4.117188 13.328125 -8.546875 C 13.328125 -12.972656 11.539062 -15.1875 7.96875 -15.1875 L 3.921875 -15.1875 L 3.921875 -1.90625 Z M 7.96875 -1.90625 "/></g></g><g clip-rule="nonzero" clip-path="url(#a300fdef36)"><path style=" stroke:none;fill-rule:nonzero;fill:#000000;fill-opacity:1;" d="M 5.386719 165.710938 L 125.714844 165.710938 L 125.714844 177.109375 L 5.386719 177.109375 Z M 5.386719 165.710938 "/></g><g clip-rule="nonzero" clip-path="url(#1cf2096fe0)"><path style=" stroke:none;fill-rule:nonzero;fill:#e5281b;fill-opacity:1;" d="M 129.527344 165.710938 L 246.058594 165.710938 L 246.058594 177.589844 L 129.527344 177.589844 Z M 129.527344 165.710938 "/></g><g clip-rule="nonzero" clip-path="url(#b8305f26d8)"><path style=" stroke:none;fill-rule:nonzero;fill:#fccc00;fill-opacity:1;" d="M 249.714844 165.710938 L 369.636719 165.710938 L 369.636719 177.589844 L 249.714844 177.589844 Z M 249.714844 165.710938 "/></g></g></svg>